{"title":"Paycheck (2003) 1080p BluRay H264 AAC Raven","uid":11332316,"size":1843639673,"categoryP":"video","categoryS":"hd___movies","magnet":"?xt=urn:btih:f45fafa5bb6cdec647eda671c780a320b81ba30f&amp;dn=Paycheck+%282003%29+1080p+BluRay+H264+AAC+Raven&amp;tr=udp%3A%2F%2Ftracker.openbittorrent.com%3A80&amp;tr=udp%3A%2F%2Fopen.demonii.com%3A1337&amp;tr=udp%3A%2F%2Ftracker.coppersurfer.tk%3A6969&amp;tr=udp%3A%2F%2Fexodus.desync.com%3A6969","seeders":0,"leechers":3,"uploader":"Raven1969","files":-1,"time":1414699358,"description":" _____________________________________________________________\n|$***********************************************************$|\n|* &quot;?$$$$$$N    &quot;$$$$$$&quot; &quot;$$$$&quot;  &quot;$$$&quot;$$$$$$$$$$&quot;&quot;$$$  &quot;$$$&quot; *|\n|* &quot;$$$&quot;&quot;&quot;$$k. &quot;$$$&quot;&quot;$$$&quot; &quot;$$$   .$$&quot;&quot;$$$&quot;&quot;&quot;&quot;$$$&quot;&quot;$$$_ '$$$&quot; *|\n|* &quot;$$$  &quot;$$F'&quot;$$&quot;    *$$&quot;&quot;$$$   .$$&quot;&quot;$$$&quot;       &quot;$$$$ '$$$&quot; *|\n|* &quot;$$$__&quot;$$&quot; &quot;$$&quot;____*$$&quot;&quot;$$$   .$$&quot;&quot;$$$$__*$$$&quot;&quot;$$$$$_$$$&quot; *|\n|* &quot;$$$**#$'  &quot;$$$$$$$$$$&quot;&quot;$$$   _$$&quot;&quot;$$$$$$$$$$&quot;&quot;$$$$$$$$$&quot; *| \n|* &quot;$$$&quot;&quot;&quot;$$. &quot;$$$&quot;&quot;&quot;&quot;$$$&quot;&quot;$$$_ .$$$&quot;&quot;$$$        &quot;$$$ '$$$$&quot; *|\n|* &quot;$$$   &quot;$$.&quot;$$&quot;    &quot;$$&quot;&quot;$$$$_.$$$&quot;&quot;$$$&quot;___*$$&quot;&quot;$$$  '$$$&quot; *|\n|* &quot;$$$    $$$&quot;$$$    $$$&quot;  &quot;$$$$$&quot;  &quot;$$$$$$$$$$&quot;&quot;$$$   $$$&quot; *|\n|* &quot;&quot;&quot;&quot;    &quot;&quot;&quot;&quot;&quot;&quot;&quot;    &quot;&quot;&quot;&quot;    &quot;&quot;&quot;    &quot;&quot;&quot;&quot;&quot;&quot;&quot;&quot;&quot;&quot;&quot;  &quot;&quot;&quot;   &quot;&quot;&quot;&quot; *|\n|$*************************(PRESENTS)************************$|\n\n        Paycheck(2003)1080p.BluRay.H264.AAC.Raven.mp4\n\nEnglish, Spanish, French, Arabic, Swedish, Greek, Romanian, Norwegian, Vietnamese, German, Russian, Dutch, Danish and Finnish subs included.\n\nEncoding Method: 2 Pass x264\n\n\n\nIMDB Rating:  6.3\n\nScreen image:\n &lt;a href=&quot;\nhttp://i.imgur.com/y1ofszT.png&quot; rel=&quot;nofollow&quot; target=&quot;_NEW&quot;&gt;\nhttp://i.imgur.com/y1ofszT.png&lt;/a&gt;\n\n\nWhat seemed like a breezy idea for an engineer to net him millions of dollars, leaves him on the run for his life and piecing together why he's being chased.\n\nMichael Jennings is a reverse engineer and what he does is technical jobs for certain companies and as soon as he is done, his memory of the work he has done is wiped out. Now the longest he has been contracted is 2 months. But now billionaire, James Rethrick offers him a job that would last 2 years, maybe 3, and he promises that he will probably earn 8 figures. Michael agrees. Before beginning he turns in all of his personal effects. And when the job is done, his memory is erased and he learns he made over 90 million dollars over the three years. When he goes to claim it and his personal effects, he discovers that prior to the erasure of his memory he waived his rights to the money he earned and that the items that were given to him were not the ones he gave when he began. Later he is arrested by the FBI who say that he committed some act of treason and murder. It's while he is in custody that he escapes using some the items that he was given. He later meets with a friend who gives ...\n\n\n\n\n\nGeneral\nFormat                                   : MPEG-4\nFormat profile                           : Base Media\nCodec ID                                 : isom\nFile size                                : 1.66 GiB\nDuration                                 : 1h 58mn\nOverall bit rate mode                    : Variable\nOverall bit rate                         : 1 996 Kbps\nEncoded date                             : UTC 2014-10-29 15:30:24\nTagged date                              : UTC 2014-10-29 15:30:24\n\nVideo\nID                                       : 1\nFormat                                   : AVC\nFormat/Info                              : Advanced Video Codec\nFormat profile                           : &lt;a class=&quot;__cf_email__&quot; href=&quot;/cdn-cgi/l/email-protection&quot; data-cfemail=&quot;2860414f4068641c0618&quot;&gt;[email&amp;#160;protected]&lt;/a&gt;&lt;script cf-hash='f9e31' type=&quot;text/javascript&quot;&gt;\n/* &lt;![CDATA[ */!function(){try{var t=&quot;currentScript&quot;in document?document.currentScript:function(){for(var t=document.getElementsByTagName(&quot;script&quot;),e=t.length;e--;)if(t[e].getAttribute(&quot;cf-hash&quot;))return t[e]}();if(t&amp;&amp;t.previousSibling){var e,r,n,i,c=t.previousSibling,a=c.getAttribute(&quot;data-cfemail&quot;);if(a){for(e=&quot;&quot;,r=parseInt(a.substr(0,2),16),n=2;a.length-n;n+=2)i=parseInt(a.substr(n,2),16)^r,e+=String.fromCharCode(i);e=document.createTextNode(e),c.parentNode.replaceChild(e,c)}}}catch(u){}}();/* ]]&gt; */&lt;/script&gt;\nFormat settings, CABAC                   : Yes\nFormat settings, ReFrames                : 5 frames\nCodec ID                                 : avc1\nCodec ID/Info                            : Advanced Video Coding\nDuration                                 : 1h 58mn\nBit rate                                 : 1 900 Kbps\nMaximum bit rate                         : 10.4 Mbps\nWidth                                    : 1 920 pixels\nHeight                                   : 818 pixels\nDisplay aspect ratio                     : 2.35:1\nFrame rate mode                          : Constant\nFrame rate                               : 23.976 fps\nColor space                              : YUV\nChroma subsampling                       : 4:2:0\nBit depth                                : 8 bits\nScan type                                : Progressive\nBits/(Pixel*Frame)                       : 0.050\nStream size                              : 1.58 GiB (95%)\nWriting library                          : x264 core 142 \nEncoded date                             : UTC 2014-10-29 15:30:24\nTagged date                              : UTC 2014-10-29 15:32:59\n\nAudio\nID                                       : 2\nFormat                                   : AAC\nFormat/Info                              : Advanced Audio Codec\nFormat profile                           : LC\nCodec ID                                 : 40\nDuration                                 : 1h 58mn\nBit rate mode                            : Variable\nBit rate                                 : 91.7 Kbps\nMaximum bit rate                         : 129 Kbps\nChannel(s)                               : 2 channels\nChannel positions                        : Front: L R\nSampling rate                            : 48.0 KHz\nCompression mode                         : Lossy\nStream size                              : 77.9 MiB (5%)\nEncoded date                             : UTC 2014-10-29 13:38:18\nTagged date                              : UTC 2014-10-29 15:32:59\n\nPLEASE  SEED FOR AS LONG AS POSSIBLE TO KEEP THE TORRENT ALIVE :-)","torrent":{"xt":"urn:btih:f45fafa5bb6cdec647eda671c780a320b81ba30f","amp;dn":"Paycheck+%282003%29+1080p+BluRay+H264+AAC+Raven","amp;tr":["udp%3A%2F%2Ftracker.openbittorrent.com%3A80","udp%3A%2F%2Fopen.demonii.com%3A1337","udp%3A%2F%2Ftracker.coppersurfer.tk%3A6969","udp%3A%2F%2Fexodus.desync.com%3A6969"],"infoHash":"f45fafa5bb6cdec647eda671c780a320b81ba30f","infoHashBuffer":{"type":"Buffer","data":[244,95,175,165,187,108,222,198,71,237,166,113,199,128,163,32,184,27,163,15]},"announce":[],"urlList":[]}}